# xmcd
#
# Track frame offsets:
# 150
# 20135
# 36400
# 53537
# 69782
# 92437
# 108590
# 130855
# 145717
# 169220
#
# Disc length: 2459 seconds
#
#
# Revision: 1
# Processed by: cddbd v1.5.2PL0 Copyright (c) Steve Scherf et al.
# Submitted via: FreeRIP 2.951 
#
DISCID=8109990a
DTITLE=Harold Melvin and The Blue Notes And Atlantic Starr - Back2Back
DYEAR=2000
DGENRE=R&B
TTITLE0=Atlantic Star - Secret Lovers
TTITLE1=The Blue Notes - If You Don't Know Me By Now
TTITLE2=Atlantic Star - Always
TTITLE3=The Blue Notes - The Love I Lost
TTITLE4=Atlantic Star - Masterpiece
TTITLE5=The Blue Notes - Wake Up Everybody
TTITLE6=Atlantic Star - Circles
TTITLE7=The Blue Notes - Satisfaction Guaranteed (Or Take Your Love Back)
TTITLE8=Atlantic Star - My First Love
TTITLE9=The Blue Notes - Bad Luck
EXTD=
EXTT0=
EXTT1=
EXTT2=
EXTT3=
EXTT4=
EXTT5=
EXTT6=
EXTT7=
EXTT8=
EXTT9=
PLAYORDER=
